<?xml version="1.0" encoding="iso-8859-1"?>
<!-- Generator: Adobe Illustrator 19.0.0, SVG Export Plug-In . SVG Version: 6.00 Build 0)  -->
<svg version="1.1" id="Layer_1" xmlns="http://www.w3.org/2000/svg" xmlns:xlink="http://www.w3.org/1999/xlink" x="0px" y="0px"
	 viewBox="0 0 496 496" style="enable-background:new 0 0 496 496;" xml:space="preserve">
<rect y="191.6" style="fill:#960E08;" width="496" height="112"/>
<polyline style="fill:#560000;" points="0,191.6 496,191.6 496,303.6 "/>
<path style="fill:#F7B33C;" d="M360,298.8c0,16-12.8,28.8-28.8,28.8H164.8c-16,0-28.8-12.8-28.8-28.8V196.4
	c0-16,12.8-28.8,28.8-28.8h165.6c16,0,28.8,12.8,28.8,28.8v102.4H360z"/>
<path style="fill:#F98C3A;" d="M136,196.4c0-16,13.6-28.8,29.6-28.8h164.8c16,0,29.6,12,29.6,28.8v103.2c0,16-12.8,28.8-28.8,28.8"
	/>
<path style="fill:#960E08;" d="M336,280.4c0,12.8-10.4,23.2-23.2,23.2H183.2c-12.8,0-23.2-10.4-23.2-23.2v-65.6
	c0-12.8,10.4-23.2,23.2-23.2h129.6c12.8,0,23.2,10.4,23.2,23.2V280.4z"/>
<path style="fill:#560000;" d="M160,214.8c0-12.8,9.6-23.2,22.4-23.2h132c12.8,0,22.4,8.8,22.4,22.4v68c0,12.8-10.4,22.4-23.2,22.4"
	/>
<path style="fill:#F7B33C;" d="M320,247.6c0,4.8-3.2,8-8,8h-24c-4.8,0-8-3.2-8-8l0,0c0-4.8,3.2-8,8-8h24
	C316.8,239.6,320,242.8,320,247.6L320,247.6z"/>
<path style="fill:#F98C3A;" d="M288,239.6h24c4.8,0,8,3.2,8,8l0,0c0,4.8-3.2,8-8,8"/>
<g>
	<circle style="fill:#960E08;" cx="400" cy="247.6" r="8.8"/>
	<circle style="fill:#960E08;" cx="448" cy="247.6" r="8.8"/>
</g>
<g>
</g>
<g>
</g>
<g>
</g>
<g>
</g>
<g>
</g>
<g>
</g>
<g>
</g>
<g>
</g>
<g>
</g>
<g>
</g>
<g>
</g>
<g>
</g>
<g>
</g>
<g>
</g>
<g>
</g>
</svg>
